<svg xmlns="http://www.w3.org/2000/svg" width="972" height="257"><path fill-rule="evenodd" d="M18 113.953V185h24V67l12.75.016c21.553.026 29.779 3.251 34.902 13.683L92.5 86.5l.286 49.25.286 49.25H117v-47.34c0-43.565-.155-47.944-1.938-54.919-1.067-4.169-2.876-9.416-4.021-11.66L108.959 67l16.771.016c25.961.024 33.974 2.853 39.109 13.807L167.5 86.5l.5 49 .5 49 11.75.282 11.75.281-.015-47.781c-.016-52.545-.23-54.881-6.086-66.482-6.116-12.115-17.416-21.259-31.399-25.407-5.425-1.609-12.25-1.813-71.25-2.133L18 42.906zM428 114v71h24V43h-24zm260-14.636c0 34 .403 58.5 1.017 61.75 1.917 10.155 9.988 19.381 19.275 22.033 2.314.661 9.608 1.236 16.208 1.277l12 .076.282-11.75.281-11.75h-10.597c-5.829 0-11.468-.466-12.532-1.035-1.834-.982-1.934-2.347-1.934-26.469v-25.434l12.25-.281 12.25-.281v-24l-12.25-.281-12.25-.281V43h-24zM749 114v71h24v-77.138l15.75.319c14.61.296 16.161.512 21.427 2.98 3.991 1.871 6.48 3.875 8.381 6.747 4.608 6.964 5.409 13.065 5.426 41.342L824 185h24v-25.412c0-29.526-1.059-37.317-6.554-48.213-5.464-10.836-13.562-18.335-24.946-23.103-7.034-2.946-14.95-4.244-30.25-4.96l-13.25-.62V43h-24zM239.5 83.964c-15.018 2.546-24.543 9.644-30.91 23.036-3.03 6.373-3.097 6.841-3.435 24-.386 19.634.513 25.794 4.888 33.5 5.814 10.239 15.754 17.284 27.391 19.414 3.263.597 16.876 1.086 30.25 1.086H292v-23.881l-26.75-.309c-30.314-.351-31.785-.691-34.721-8.029-2.053-5.13-2.175-32.318-.167-37.063 2.871-6.784 4.058-7.184 22.366-7.537 11.263-.217 17.448.064 19.424.882 3.652 1.513 6.474 5.424 7.373 10.221l.698 3.716H241v24h63l-.016-13.75c-.009-7.973-.581-16.156-1.363-19.475-3.019-12.831-12.885-23.582-25.496-27.783-5.135-1.71-9.548-2.282-19.625-2.541-7.15-.184-15.25.047-18 .513m77.5 26.368c0 16.401.451 29.716 1.113 32.869 3.045 14.503 12.68 27.815 24.704 34.134 8.515 4.474 15.343 6.293 27.071 7.21l9.112.713v-23.963l-8.472-.651c-14.575-1.12-22.809-5.504-26.65-14.187-2.066-4.671-3.834-18.731-3.861-30.707L340 108h14.318c16.362 0 22.14 1.254 27.961 6.068 8.201 6.783 9.673 14.019 9.701 47.714l.02 23.281 11.75-.281 11.75-.282-.083-27c-.09-29.547-.866-35.371-6.167-46.291-3.362-6.925-12.945-16.783-19.925-20.498-10.703-5.696-18.325-6.916-46.575-7.456L317 82.763zm196.679-26.286c-25.632 3.015-42.293 17.42-47.156 40.769-1.237 5.943-1.523 16.027-1.523 53.75V225h24l.012-46.75c.013-51.278.306-54.368 5.795-61.15 1.598-1.975 5.094-4.718 7.768-6.096 4.502-2.319 6.077-2.529 21.29-2.843l16.428-.338-.584 15.338c-.641 16.827-1.568 21.421-5.483 27.169-4.356 6.395-15.738 10.67-28.41 10.67H501v24.258l9.112-.713c11.137-.871 18.432-2.701 26.353-6.609 11.724-5.785 20.655-17.076 24.648-31.161 2.201-7.763 2.347-9.977 2.366-35.775l.021-27.5-21.5-.128c-11.825-.07-24.57.233-28.321.674m63.071-.489c-.413.427-.744 11.614-.737 24.86.02 35.709 2.841 46.939 15.078 60.021 9.282 9.922 20.785 14.698 38.797 16.107l9.112.713v-23.961l-8.293-.585c-15.893-1.122-25.13-6.737-28.276-17.189-.886-2.942-1.767-11.341-2.127-20.273L599.69 108h14.474c16.867 0 22.447 1.263 28.512 6.455 7.396 6.33 7.746 8.107 8.125 41.295l.334 29.25h24.019l-.386-30.25c-.359-28.147-.539-30.662-2.582-36.17-4.709-12.697-10.965-20.577-21.134-26.619-11.445-6.799-18.711-8.112-48.052-8.684-14.025-.273-25.837-.147-26.25.28m284.48 29.16c.375 27.31.591 30.335 2.599 36.433 2.576 7.824 8.541 17.145 14.305 22.352 9.577 8.653 26.06 13.475 46.116 13.491 4.813.004 8.748.345 8.746.757-.009 1.78-4.094 7.223-7.2 9.592-5.461 4.165-13.378 5.658-30.006 5.658H881v24l15.75-.015c17.594-.016 24.865-1.267 34.731-5.976 12.013-5.733 20.251-15.42 25.198-29.63l2.743-7.879.039-49 .039-49-11.738-.282-11.738-.281-.262 38.781-.262 38.782-14.5-.114c-20.832-.164-27.203-2.928-33.16-14.386-2.256-4.338-2.358-5.543-2.84-33.5l-.5-29-11.839-.283-11.839-.282z"/></svg>