<svg xmlns="http://www.w3.org/2000/svg" width="870" height="870" viewBox="0 0 870 870" version="1.1"><path d="M 766 1.621 C 755.759 3.001, 743.563 5.222, 735.500 7.176 C 733.300 7.708, 730.033 8.387, 728.241 8.683 C 726.448 8.979, 724.734 9.621, 724.432 10.110 C 724.129 10.600, 722.585 11, 721 11 C 719.415 11, 717.871 11.400, 717.568 11.890 C 717.266 12.379, 715.552 13.004, 713.759 13.279 C 706.800 14.347, 688.300 19.497, 682.250 22.050 C 681.013 22.573, 678.987 23.390, 677.750 23.866 C 674.032 25.297, 670.644 26.670, 668 27.816 C 666.625 28.412, 663.389 29.583, 660.809 30.418 C 658.228 31.253, 650.803 34.451, 644.309 37.525 C 637.814 40.599, 631.375 43.644, 630 44.292 C 628.625 44.940, 623.102 48.064, 617.726 51.235 C 612.351 54.406, 607.701 57, 607.394 57 C 606.011 57, 578.556 76.105, 569.971 83.041 C 561.333 90.021, 543.397 107.628, 531.814 120.500 C 524.745 128.356, 515.102 141.400, 506.310 155 C 495.507 171.710, 493.315 175.623, 483.622 195.500 C 475.823 211.492, 474.100 215.502, 468.903 229.750 C 466.240 237.048, 465.522 238.913, 464.184 242 C 462.046 246.934, 456.533 265.597, 455.322 272 C 455.062 273.375, 454.467 275.400, 454 276.500 C 453.533 277.600, 452.872 279.850, 452.531 281.500 C 452.190 283.150, 451.501 286.075, 451.001 288 C 447.096 303.026, 443 327.711, 443 336.216 C 443 345.546, 444.681 345.107, 450.542 334.250 C 453.140 329.438, 456.508 323.689, 458.026 321.475 C 459.545 319.261, 462.235 314.994, 464.005 311.992 C 465.774 308.991, 469.188 303.828, 471.591 300.518 C 473.994 297.208, 480.043 288.875, 485.032 282 C 490.021 275.125, 494.846 268.600, 495.756 267.500 C 523.149 234.364, 541.130 215.191, 560.470 198.500 C 564.294 195.200, 569.240 190.902, 571.461 188.948 C 573.683 186.995, 577.525 183.845, 580 181.948 C 582.475 180.052, 585.653 177.488, 587.063 176.251 C 594.756 169.502, 623.338 150.901, 637 143.754 C 642.225 141.020, 647.063 138.327, 647.750 137.770 C 648.438 137.212, 649 137.027, 649 137.358 C 649 139.715, 628.496 178.221, 623.309 185.605 C 622.190 187.197, 619.508 191.425, 617.347 195 C 615.187 198.575, 612.664 202.400, 611.740 203.500 C 610.816 204.600, 607.459 209.172, 604.280 213.661 C 595.697 225.779, 590.703 232.256, 580.120 245 C 563.023 265.587, 551.616 277.619, 532 295.757 C 512.892 313.424, 508.421 317.263, 492.692 329.502 C 480.242 339.189, 477.950 342.631, 484.750 341.427 C 486.813 341.062, 490.975 340.098, 494 339.285 C 497.025 338.472, 501.188 337.400, 503.250 336.903 C 505.313 336.407, 508.688 335.572, 510.750 335.049 C 512.813 334.526, 516.750 333.621, 519.500 333.037 C 527.022 331.442, 544.306 325.815, 553.500 321.968 C 554.600 321.508, 558.425 320.135, 562 318.917 C 575.110 314.452, 595.006 305.170, 617.398 293.073 C 626.857 287.962, 644.935 275.799, 657.965 265.779 C 671.581 255.308, 702.292 224.469, 706.415 217.129 C 706.918 216.233, 707.608 215.275, 707.948 215 C 709.517 213.734, 716.347 204.719, 721.587 197 C 736.218 175.445, 752.502 144.191, 759.974 123.327 C 763.372 113.836, 764.125 111.870, 765.841 108 C 768.274 102.515, 774.159 83.059, 777.033 71 C 777.492 69.075, 778.377 65.700, 779 63.500 C 783.830 46.448, 788.993 16.368, 788.998 5.250 L 789 0 782.750 0.103 C 779.313 0.159, 771.775 0.843, 766 1.621 M 180.052 102.437 C 178.327 104.516, 179.339 114.669, 183.049 132.500 C 183.621 135.250, 184.325 138.850, 184.613 140.500 C 184.901 142.150, 185.500 144.400, 185.946 145.500 C 186.391 146.600, 187.303 149.975, 187.972 153 C 190.863 166.059, 194.764 178.088, 200.295 191 C 201.120 192.925, 203.027 197.650, 204.532 201.500 C 206.037 205.350, 207.603 208.950, 208.011 209.500 C 208.418 210.050, 211.137 215, 214.051 220.500 C 223.460 238.253, 241.230 262.764, 250.630 270.953 C 252.758 272.808, 257.875 277.449, 262 281.267 C 274.998 293.298, 296.180 307.542, 313 315.562 C 333.304 325.244, 343.782 329.496, 356 333.011 C 360.125 334.198, 364.281 335.581, 365.236 336.085 C 366.191 336.588, 367.885 337, 369 337 C 370.115 337, 371.809 337.410, 372.764 337.912 C 373.719 338.413, 377.200 339.356, 380.500 340.007 C 383.800 340.658, 387.534 341.598, 388.797 342.095 C 391.870 343.306, 394.735 343.238, 395.539 341.937 C 396.291 340.721, 393.272 337, 391.534 337 C 390.898 337, 389.505 336.201, 388.439 335.224 C 387.372 334.248, 382 329.684, 376.500 325.083 C 362.689 313.529, 340.372 291.396, 331.043 280 C 326.765 274.775, 322.306 269.643, 321.133 268.595 C 319.960 267.547, 319 266.283, 319 265.786 C 319 264.984, 313.421 257.282, 311.911 256 C 310.838 255.089, 295.002 231.076, 292.622 226.749 C 284.652 212.265, 278.870 200.797, 279.313 200.353 C 279.878 199.789, 284.448 202.226, 296.556 209.547 C 305.214 214.782, 315.768 222.317, 329 232.710 C 337.720 239.560, 368.737 270.047, 375 277.925 C 376.925 280.346, 380.774 285.066, 383.552 288.414 C 386.331 291.761, 390.565 297.425, 392.961 301 C 395.357 304.575, 397.948 308.175, 398.719 309 C 401.526 312.004, 415.341 333.639, 417.703 338.731 C 420.373 344.488, 421.648 345.752, 423.208 344.192 C 424.609 342.791, 422.405 325.456, 419.051 311.500 C 418.522 309.300, 417.810 306.150, 417.469 304.500 C 417.128 302.850, 416.467 300.600, 416 299.500 C 415.533 298.400, 414.873 296.150, 414.533 294.500 C 412.742 285.803, 411.851 282.395, 409.512 275.287 C 408.103 271.004, 406.572 266.600, 406.109 265.500 C 405.646 264.400, 404.703 262.150, 404.012 260.500 C 403.321 258.850, 402.136 256.306, 401.378 254.846 C 400.620 253.386, 399.985 251.586, 399.966 250.846 C 399.933 249.532, 392.513 234.371, 386.162 222.638 C 374.451 201.002, 354.938 178.119, 333.271 160.612 C 315.945 146.611, 284.959 128.786, 268 123.062 C 264.425 121.856, 260.375 120.388, 259 119.801 C 248.701 115.400, 236.229 111.650, 222.500 108.827 C 219.750 108.261, 215.700 107.365, 213.500 106.837 C 208.245 105.573, 201.020 104.231, 193 103.029 C 189.425 102.493, 185.348 101.782, 183.939 101.447 C 182.224 101.040, 180.940 101.367, 180.052 102.437 M 463.500 437.877 C 456.373 439.765, 449.726 444.484, 444.695 451.227 C 441.541 455.453, 438 465.119, 438 469.500 C 438 476.620, 443.215 487.267, 449.818 493.630 C 461.439 504.826, 482.635 503.714, 494.069 491.309 C 502.487 482.177, 505.022 471.173, 501.468 459.204 C 499.434 452.356, 490.956 443.088, 483.981 440.087 C 478.485 437.723, 468.252 436.618, 463.500 437.877 M 506.978 512.807 C 501.748 517.027, 495.134 520.597, 488.243 522.918 C 483.331 524.573, 479.544 525.004, 469.782 525.018 L 457.500 525.036 469.837 531.512 C 483.298 538.577, 496.266 546.734, 505.261 553.792 C 508.429 556.278, 511.292 558.042, 511.622 557.711 C 512.056 557.277, 512.395 518.687, 512.034 510.750 C 511.971 509.372, 510.485 509.976, 506.978 512.807 M 514.164 559.896 C 514.349 560.398, 517.656 564.115, 521.514 568.155 C 525.372 572.195, 529.870 577.300, 531.509 579.500 C 533.148 581.700, 534.752 583.725, 535.075 584 C 535.397 584.275, 537.925 587.875, 540.691 592 C 547.539 602.211, 554.127 614.669, 558.513 625.702 L 562.171 634.903 566.336 635.419 C 569.971 635.869, 582.998 635.801, 613.762 635.170 L 622.024 635 621.762 597.250 L 621.500 559.500 567.664 559.241 C 535.480 559.087, 513.963 559.350, 514.164 559.896 M 535.439 785.765 C 534.856 786.169, 531.990 790.998, 529.071 796.497 C 526.151 801.995, 522.691 807.767, 521.381 809.323 C 520.072 810.880, 519 812.522, 519 812.973 C 519 813.423, 516.486 816.201, 513.413 819.146 C 506.080 826.173, 504.586 828.964, 506.608 831.851 C 509.382 835.812, 515.767 834.103, 521.609 827.835 C 526.230 822.878, 532.956 813.350, 534.584 809.453 C 535.371 807.570, 536.498 803.776, 537.088 801.023 C 537.878 797.342, 539 795.348, 541.331 793.483 C 543.074 792.089, 543.712 791.233, 542.750 791.581 C 541.415 792.064, 541 791.681, 541 789.967 C 541 788.732, 540.212 787.123, 539.250 786.392 C 537.206 784.840, 536.857 784.783, 535.439 785.765" stroke="none" fill="#48b644" fill-rule="evenodd"/><path d="M 234.500 334.057 C 232.300 334.512, 228.502 334.911, 226.060 334.942 C 216.501 335.066, 187.224 342.285, 175.716 347.355 C 173.947 348.135, 169.800 349.819, 166.500 351.097 C 150.755 357.199, 122.687 373.958, 109.500 385.131 C 99.408 393.681, 82.324 411.691, 77.845 418.500 C 71.595 428.002, 63.055 445.161, 59.177 456.012 C 56.663 463.045, 53.541 478.579, 51.967 491.890 C 51.013 499.959, 51.001 504.649, 51.912 512.890 C 53.646 528.576, 56.544 542.231, 60.001 551.002 C 63.232 559.200, 72.804 577.864, 76.235 582.656 C 78.031 585.165, 80.850 589.119, 82.500 591.443 C 90.460 602.655, 107.462 619.044, 121.067 628.620 C 123.505 630.336, 128.650 634.180, 132.500 637.163 C 148.399 649.480, 164.429 661.715, 168.972 665 C 171.634 666.925, 179.367 672.752, 186.156 677.949 C 192.945 683.146, 202.960 690.796, 208.411 694.949 C 213.862 699.102, 221.287 704.770, 224.911 707.544 C 228.535 710.319, 236.350 716.270, 242.278 720.770 C 248.207 725.270, 254.732 730.233, 256.778 731.800 C 266.479 739.223, 272.550 743.830, 277.469 747.500 C 280.417 749.700, 287.255 754.889, 292.665 759.032 C 308.736 771.338, 323.168 782.332, 328.500 786.328 C 331.250 788.389, 335.750 791.841, 338.500 794 C 341.250 796.159, 345.750 799.603, 348.500 801.655 C 353.437 805.337, 365.117 814.221, 384.382 828.946 C 389.818 833.101, 396.398 838.075, 399.006 840 C 401.613 841.925, 409.294 847.775, 416.074 853 C 422.853 858.225, 430.606 864.188, 433.301 866.250 C 435.996 868.313, 439.216 870, 440.457 870 C 442.283 870, 450.946 864.483, 453 862.011 C 453.275 861.680, 458.450 857.638, 464.500 853.027 C 476.296 844.039, 485.639 836.787, 500.290 825.246 C 505.356 821.256, 511.801 816.444, 514.613 814.552 C 521.808 809.714, 523.766 807.049, 531.657 791.360 C 538.831 777.096, 544.045 762.399, 545.976 751 C 546.582 747.425, 547.568 742.025, 548.168 739 C 549.574 731.903, 549.600 696.156, 548.205 689 C 547.614 685.975, 546.591 680.350, 545.930 676.500 C 544.619 668.858, 540.420 655.179, 537.004 647.420 C 535.812 644.714, 534.239 641.106, 533.508 639.402 C 532.240 636.450, 531.843 636.277, 525.017 635.705 C 521.078 635.374, 516.763 635.520, 515.428 636.027 L 513 636.950 513 694.475 L 513 752 473 752 L 433 752 433 694.535 C 433 640.787, 432.887 637.017, 431.250 636.248 C 430.288 635.795, 405.538 635.442, 376.252 635.462 L 323.004 635.500 323.002 596.759 L 323 558.017 377.750 557.759 L 432.500 557.500 432.500 552.043 L 432.500 546.585 424.822 543.868 C 414.857 540.341, 398.666 537.008, 391.308 536.969 C 388.113 536.952, 382.317 536.524, 378.427 536.019 C 366.201 534.429, 335.537 537.987, 319.500 542.855 C 314.033 544.514, 295.971 551.985, 290.190 554.978 C 281.985 559.225, 272.153 565.978, 255.938 578.500 C 223.924 603.225, 208.899 611.400, 187 616.008 C 180.884 617.295, 161.933 616.864, 155.305 615.287 C 147.039 613.320, 132.141 604.855, 125.765 598.503 C 109.804 582.601, 102.867 564.050, 102.767 537 C 102.677 512.694, 105.963 497.962, 115.869 478.260 C 122.351 465.368, 139.286 446.230, 151.500 437.994 C 154.250 436.140, 158.075 433.412, 160 431.932 C 161.925 430.452, 165.975 427.899, 169 426.258 C 181.147 419.669, 186.548 416.679, 187.500 416.015 C 188.050 415.632, 193.450 413.406, 199.500 411.068 C 205.550 408.731, 212.698 405.959, 215.383 404.909 C 218.069 403.859, 221.242 403, 222.433 403 C 223.625 403, 225.057 402.543, 225.615 401.985 C 226.747 400.853, 250.334 396.649, 267.962 394.438 C 291.650 391.466, 325.238 393.049, 353.500 398.469 C 365.901 400.847, 370.070 402.075, 380 406.277 C 381.925 407.092, 387.550 409.464, 392.500 411.550 C 404.484 416.599, 419.039 426.421, 429.821 436.736 C 431.877 438.702, 432.843 438.315, 437.504 433.654 C 445.566 425.592, 457.858 421, 471.378 421 C 493.574 421, 509.805 432.807, 517.733 454.720 C 518.993 458.204, 519.449 462.481, 519.413 470.500 C 519.365 480.997, 519.198 481.855, 515.741 489.262 C 510.644 500.186, 502.964 508.020, 492.518 512.955 C 481.956 517.944, 472.034 519.750, 464.253 518.100 C 457.650 516.699, 449.082 513.515, 444 510.572 C 440.309 508.434, 432.917 500.846, 429.426 495.610 C 421.386 483.556, 420.187 463.246, 426.663 448.816 L 429.305 442.928 426.403 439.879 C 423.658 436.995, 412.341 428.111, 405.284 423.299 C 395.015 416.297, 371.467 406.635, 358.210 403.983 C 355.069 403.355, 350.700 402.431, 348.500 401.930 C 346.300 401.429, 338.753 400.115, 331.728 399.010 C 315.684 396.485, 278.841 396.159, 266.360 398.431 C 262.037 399.218, 256.025 400.155, 253 400.514 C 249.975 400.873, 245.925 401.569, 244 402.061 C 242.075 402.554, 236.225 403.913, 231 405.081 C 220.523 407.425, 212.117 410.105, 204.500 413.532 C 201.750 414.769, 196.049 417.207, 191.831 418.950 C 170.441 427.789, 141.551 449.189, 129.051 465.453 C 122.614 473.829, 115.236 487.527, 112.504 496.177 C 108.811 507.867, 107.880 514.416, 107.324 532.626 C 106.903 546.421, 107.133 550.171, 108.915 558.574 C 112.863 577.195, 122.179 592.322, 135 600.930 C 157.116 615.779, 182.914 617.021, 208.500 604.470 C 221.821 597.935, 252.203 577.259, 266.498 565 C 276.857 556.117, 287.951 548.889, 301.610 542.125 C 309.249 538.342, 317.075 534.732, 319 534.104 C 327.912 531.195, 340.328 528.070, 349 526.554 C 354.225 525.641, 360.672 524.467, 363.326 523.947 C 369.868 522.664, 394.958 522.747, 402.440 524.077 C 432.966 529.503, 443.342 532.565, 460.500 541.211 C 497.460 559.834, 524.470 586.051, 541.981 620.296 C 545.694 627.558, 549.649 636.200, 550.770 639.500 C 566.592 686.093, 566.919 717.960, 552.045 764 C 548.755 774.187, 548.021 775.894, 543.760 783.294 C 541.025 788.045, 540.175 792, 541.890 792 C 542.876 792, 552.117 785.283, 566.241 774.301 C 586.302 758.702, 596.803 750.603, 603.627 745.467 C 607.547 742.517, 611.372 739.497, 612.127 738.756 C 612.882 738.015, 617.029 734.729, 621.343 731.454 C 645.891 712.817, 663.187 699.438, 665.500 697.297 C 666.600 696.279, 669.075 694.338, 671 692.984 C 674.666 690.406, 721.137 654.460, 731.500 646.187 C 734.800 643.552, 739.075 640.307, 741 638.976 C 742.925 637.644, 745.400 635.719, 746.500 634.697 C 747.600 633.675, 751.693 630.428, 755.595 627.480 C 763.493 621.515, 783.570 600.966, 788.308 594 C 789.991 591.525, 791.638 589.275, 791.967 589 C 792.953 588.177, 799.631 578.618, 800.350 577 C 800.717 576.175, 801.835 574.150, 802.834 572.500 C 809.405 561.647, 812.447 554.602, 816.001 542 C 820.119 527.400, 820.825 524.016, 821.998 513.245 C 823.243 501.823, 821.978 482.869, 819.312 473 C 818.495 469.975, 817.456 466.150, 817.003 464.500 C 814.483 455.326, 808.651 441.899, 803.539 433.500 C 802.199 431.300, 800.458 428.298, 799.668 426.829 C 796.915 421.708, 784.459 406.445, 776.956 399 C 765.542 387.673, 758.645 382.056, 745.481 373.364 C 719.434 356.166, 683.336 341.829, 656.500 338.022 C 652.100 337.398, 645.800 336.479, 642.500 335.979 C 633.943 334.684, 609.917 333.454, 600.500 333.828 C 570.538 335.020, 539.825 340.068, 526.500 345.990 C 525.400 346.478, 520.225 348.328, 515 350.100 C 493.667 357.333, 467.840 372.550, 449.447 388.725 L 439.877 397.140 435.213 393.320 C 432.648 391.219, 428.063 387.319, 425.024 384.653 C 421.986 381.987, 417.925 378.944, 416 377.891 C 414.075 376.838, 410.025 374.195, 407 372.019 C 400.659 367.457, 371.897 352.904, 364.500 350.514 C 361.750 349.626, 358.488 348.472, 357.250 347.950 C 352.467 345.931, 350.346 345.186, 346 343.998 C 343.525 343.322, 340.375 342.396, 339 341.941 C 335.506 340.784, 317.889 337.298, 309.500 336.103 C 305.650 335.555, 299.523 334.632, 295.885 334.053 C 288.208 332.831, 240.412 332.835, 234.500 334.057 M 462 426.870 C 456.649 428.050, 445.882 433.532, 442.263 436.919 C 432.349 446.198, 428.500 455.309, 428.500 469.500 C 428.500 479.901, 429.973 485.347, 434.791 492.762 C 444.475 507.665, 465.573 516.580, 480.101 511.907 C 498.467 505.999, 510.513 493.344, 513.986 476.308 C 515.653 468.134, 513.977 458.990, 509.092 449.591 C 504.379 440.526, 498.510 434.802, 489.472 430.454 C 483.293 427.482, 480.762 426.844, 473.801 426.504 C 469.236 426.281, 463.925 426.446, 462 426.870 M 463.500 437.877 C 456.373 439.765, 449.726 444.484, 444.695 451.227 C 441.541 455.453, 438 465.119, 438 469.500 C 438 476.620, 443.215 487.267, 449.818 493.630 C 461.439 504.826, 482.635 503.714, 494.069 491.309 C 502.487 482.177, 505.022 471.173, 501.468 459.204 C 499.434 452.356, 490.956 443.088, 483.981 440.087 C 478.485 437.723, 468.252 436.618, 463.500 437.877 M 506.978 512.807 C 501.748 517.027, 495.134 520.597, 488.243 522.918 C 483.331 524.573, 479.544 525.004, 469.782 525.018 L 457.500 525.036 469.837 531.512 C 483.298 538.577, 496.266 546.734, 505.261 553.792 C 508.429 556.278, 511.292 558.042, 511.622 557.711 C 512.056 557.277, 512.395 518.687, 512.034 510.750 C 511.971 509.372, 510.485 509.976, 506.978 512.807 M 514.164 559.896 C 514.349 560.398, 517.656 564.115, 521.514 568.155 C 525.372 572.195, 529.870 577.300, 531.509 579.500 C 533.148 581.700, 534.752 583.725, 535.075 584 C 535.397 584.275, 537.925 587.875, 540.691 592 C 547.539 602.211, 554.127 614.669, 558.513 625.702 L 562.171 634.903 566.336 635.419 C 569.971 635.869, 582.998 635.801, 613.762 635.170 L 622.024 635 621.762 597.250 L 621.500 559.500 567.664 559.241 C 535.480 559.087, 513.963 559.350, 514.164 559.896" stroke="none" fill="#fb1404" fill-rule="evenodd"/></svg>